{
  "accessors": [
    {
      "bufferView": 2,
      "componentType": 5126,
      "count": 17218,
      "max": [
        2.5227108001708984,
        2.132080554962158,
        3.1591527462005615
      ],
      "min": [
        -2.4404921531677246,
        -0.9854146838188171,
        -0.9052692651748657
      ],
      "type": "VEC3"
    },
    {
      "bufferView": 2,
      "byteOffset": 206616,
      "componentType": 5126,
      "count": 17218,
      "max": [
        0.9999810457229614,
        0.9996155500411987,
        0.9997907876968384
      ],
      "min": [
        -0.9998904466629028,
        -0.9999164342880249,
        -0.999779224395752
      ],
      "type": "VEC3"
    },
    {
      "bufferView": 1,
      "componentType": 5126,
      "count": 17218,
      "max": [
        1.000240445137024,
        0.4723820686340332
      ],
      "min": [
        0.0,
        0.0
      ],
      "type": "VEC2"
    },
    {
      "bufferView": 0,
      "componentType": 5125,
      "count": 92220,
      "type": "SCALAR"
    }
  ],
  "asset": {
    "extras": {
      "author": "5thDimesion (https://sketchfab.com/5thDimesion)",
      "license": "CC-BY-4.0 (http://creativecommons.org/licenses/by/4.0/)",
      "source": "https://sketchfab.com/3d-models/splash-0079f9a78c0c4fa98016dbc19762fe84",
      "title": "Splash"
    },
    "generator": "Sketchfab-13.31.0",
    "version": "2.0"
  },
  "bufferViews": [
    {
      "buffer": 0,
      "byteLength": 368880,
      "name": "floatBufferViews",
      "target": 34963
    },
    {
      "buffer": 0,
      "byteLength": 137744,
      "byteOffset": 368880,
      "byteStride": 8,
      "name": "floatBufferViews",
      "target": 34962
    },
    {
      "buffer": 0,
      "byteLength": 413232,
      "byteOffset": 506624,
      "byteStride": 12,
      "name": "floatBufferViews",
      "target": 34962
    }
  ],
  "buffers": [
    {
      "byteLength": 919856,
      "uri": "scene.bin"
    }
  ],
  "materials": [
    {
      "doubleSided": true,
      "name": "Liquid_Domain_Material",
      "pbrMetallicRoughness": {
        "baseColorFactor": [
          0.6751395395437068,
          0.00523384343264993,
          0.00523384343264993,
          1.0
        ],
        "roughnessFactor": 0.0471517312290479
      }
    }
  ],
  "meshes": [
    {
      "name": "Object_0",
      "primitives": [
        {
          "attributes": {
            "NORMAL": 1,
            "POSITION": 0,
            "TEXCOORD_0": 2
          },
          "indices": 3,
          "material": 0,
          "mode": 4
        }
      ]
    }
  ],
  "nodes": [
    {
      "children": [
        1
      ],
      "matrix": [
        1.0,
        0.0,
        0.0,
        0.0,
        0.0,
        2.220446049250313e-16,
        -1.0,
        0.0,
        0.0,
        1.0,
        2.220446049250313e-16,
        0.0,
        0.0,
        0.0,
        0.0,
        1.0
      ],
      "name": "Sketchfab_model"
    },
    {
      "children": [
        2
      ],
      "name": "root"
    },
    {
      "children": [
        3
      ],
      "matrix": [
        1.0,
        0.0,
        0.0,
        0.0,
        0.0,
        2.220446049250313e-16,
        1.0,
        0.0,
        0.0,
        -1.0,
        2.220446049250313e-16,
        0.0,
        0.0,
        0.0,
        0.0,
        1.0
      ],
      "name": "GLTF_SceneRootNode"
    },
    {
      "children": [
        4
      ],
      "matrix": [
        1.9510574340820313,
        0.0,
        0.0,
        0.0,
        0.0,
        3.0,
        0.0,
        0.0,
        0.0,
        0.0,
        1.9999998807907104,
        0.0,
        0.0,
        0.0,
        0.0,
        1.0
      ],
      "name": "Liquid Domain_0"
    },
    {
      "mesh": 0,
      "name": "Object_4"
    }
  ],
  "scene": 0,
  "scenes": [
    {
      "name": "Sketchfab_Scene",
      "nodes": [
        0
      ]
    }
  ]
}
